<svg id="Capa_1" data-name="Capa 1" xmlns="http://www.w3.org/2000/svg" viewBox="0 0 341.69 380.53"><defs><style>.cls-1{fill:#1f2c41;}.cls-2{fill:#4eb4e3;}.cls-3{fill:#27aee1;}.cls-4{fill:#00a3d7;}.cls-5{fill:#73bce5;}.cls-6{fill:#64b8e4;}.cls-7{fill:#a1cae9;}.cls-8{fill:#96abbf;}.cls-9{fill:#8ca5ba;}.cls-10{fill:#7c9bb1;}.cls-11{fill:#abb7c8;}.cls-12,.cls-13,.cls-18{fill:#fff;}.cls-12{opacity:0.1;}.cls-13{opacity:0.2;}.cls-14{fill:#93a9bd;}.cls-15{fill:#5794c3;}.cls-16{fill:#378ec1;}.cls-17{fill:#1880b1;}</style></defs><ellipse class="cls-1" cx="51.18" cy="321.36" rx="51.18" ry="16.27"/><path class="cls-1" d="M382.49,344.65c0,9-22.91,16.27-51.18,16.27s-51.18-7.29-51.18-16.27,22.91-16.27,51.18-16.27S382.49,335.67,382.49,344.65Z" transform="translate(-40.8 -23.29)"/><path class="cls-1" d="M274.75,386.33c0,9.66-28.72,17.49-64.14,17.49s-64.15-7.83-64.15-17.49,28.72-17.48,64.15-17.48S274.75,376.68,274.75,386.33Z" transform="translate(-40.8 -23.29)"/><path class="cls-2" d="M279.68,34V25.81a2.38,2.38,0,0,0-2.21-2.52H240c-1.22,0-1.53.91-2.2,2.52l-3.19,8h-114c-5.12,0-9.28,4.75-9.28,10.62V153.72c0,5.86,4.16,10.62,9.28,10.62H278.26c5.12,0,9.27-4.76,9.27-10.62V44.44C287.53,39.13,284.12,34.77,279.68,34Z" transform="translate(-40.8 -23.29)"/><path class="cls-3" d="M279.68,33.94V25.81a2.38,2.38,0,0,0-2.21-2.52H257a76.52,76.52,0,0,1-2.9,10.53Z" transform="translate(-40.8 -23.29)"/><path class="cls-4" d="M277.47,23.29H267.35c0,.14,0,.27,0,.41a91,91,0,0,1-1,10.12l13.26.12V25.81A2.38,2.38,0,0,0,277.47,23.29Z" transform="translate(-40.8 -23.29)"/><path class="cls-3" d="M278.26,33.82H254.07C235.54,85.63,190.76,122.9,139.5,122.9a106,106,0,0,1-28.13-3.85v34.67c0,5.86,4.16,10.62,9.28,10.62H278.26c5.12,0,9.27-4.76,9.27-10.62V44.44C287.53,38.57,283.38,33.82,278.26,33.82Z" transform="translate(-40.8 -23.29)"/><path class="cls-4" d="M278.26,33.82H266.42c-13,62.23-62.53,109.66-120.36,109.66a106.61,106.61,0,0,1-34.69-5.87v16.11c0,5.86,4.16,10.62,9.28,10.62H278.26c5.12,0,9.27-4.76,9.27-10.62V44.44C287.53,38.57,283.38,33.82,278.26,33.82Z" transform="translate(-40.8 -23.29)"/><path class="cls-5" d="M305.51,46.25l1.62-7.4a1.75,1.75,0,0,0-1.7-2.29H268c-1.21,0-1.72.83-2.7,2.29L260.5,46.1h-114c-5.12,0-10.21,4.31-11.38,9.62l-21.72,99c-1.16,5.31,2,9.62,7.16,9.62H278.18c5.12,0,10.22-4.31,11.38-9.62l21.73-99C312.34,50.91,309.79,47,305.51,46.25Z" transform="translate(-40.8 -23.29)"/><path class="cls-6" d="M305.17,46.21h.35l1.61-7.36a1.75,1.75,0,0,0-1.7-2.29h-20.5a80.24,80.24,0,0,1-5,9.54c-28.83,46.94-81,80.7-132.28,80.7a107.46,107.46,0,0,1-27.36-3.48l-6.89,31.4c-1.16,5.31,2,9.62,7.16,9.62H278.18c5.12,0,10.22-4.31,11.38-9.62l21.73-99C312.37,50.79,309.65,46.77,305.17,46.21Z" transform="translate(-40.8 -23.29)"/><path class="cls-7" d="M232.68,53.67h-79.2c-5.12,0-10.21,4.31-11.38,9.63l-8.85,40.36C160.4,75.57,196.4,56.5,232.68,53.67Z" transform="translate(-40.8 -23.29)"/><path class="cls-2" d="M305.16,46.21h.36l1.61-7.36a1.75,1.75,0,0,0-1.7-2.29H295.3c0,.13,0,.25,0,.38a84,84,0,0,1-3,9.16C267,102.48,208,145.44,150.13,145.44a105.37,105.37,0,0,1-33.52-5.32l-3.2,14.6c-1.16,5.31,2,9.62,7.16,9.62H278.18c5.12,0,10.22-4.31,11.38-9.62l21.73-99C312.37,50.79,309.65,46.76,305.16,46.21Z" transform="translate(-40.8 -23.29)"/><path class="cls-8" d="M134,343c0,3.88-18.71,7-41.78,7s-41.78-3.15-41.78-7V326H134Z" transform="translate(-40.8 -23.29)"/><path class="cls-9" d="M119.76,326V336c0,3.89-18.7,7-41.77,7a195.34,195.34,0,0,1-27.53-1.75V343c0,3.88,18.7,7,41.78,7S134,346.88,134,343V326Z" transform="translate(-40.8 -23.29)"/><path class="cls-10" d="M127.25,326v13.5c0,3.89-18.71,7-41.78,7-14.63,0-27.49-1.27-34.95-3.18C51.66,347.08,69.9,350,92.24,350c23.07,0,41.78-3.15,41.78-7V326Z" transform="translate(-40.8 -23.29)"/><path class="cls-11" d="M134,326c0,3.89-18.71,7-41.78,7s-41.78-3.15-41.78-7,18.7-7,41.78-7S134,322.12,134,326Z" transform="translate(-40.8 -23.29)"/><path class="cls-12" d="M109.31,324.34c0,2-11.36,3.56-25.38,3.56s-25.37-1.59-25.37-3.56,11.36-3.56,25.37-3.56S109.31,322.38,109.31,324.34Z" transform="translate(-40.8 -23.29)"/><path class="cls-13" d="M89.43,324.34c0,1.32-5.12,2.4-11.44,2.4s-11.45-1.08-11.45-2.4S71.66,322,78,322,89.43,323,89.43,324.34Z" transform="translate(-40.8 -23.29)"/><path class="cls-14" d="M90.83,319H88.64c18.82.17,33.75,2.56,33.75,5.48S106.33,330,86.52,330c-18.5,0-33.72-2.14-35.66-4.89a1.42,1.42,0,0,0-.21.7c0,3.75,18,6.78,40.18,6.78s40.17-3,40.17-6.78S113,319,90.83,319Z" transform="translate(-40.8 -23.29)"/><path class="cls-15" d="M131.19,321.82c0,3.62-17.44,6.56-38.95,6.56s-38.95-2.94-38.95-6.56V306h77.9Z" transform="translate(-40.8 -23.29)"/><path class="cls-16" d="M117.9,306v9.28c0,3.63-17.44,6.56-38.95,6.56a181.51,181.51,0,0,1-25.66-1.63v1.63c0,3.62,17.43,6.56,38.95,6.56s39-2.94,39-6.56V306Z" transform="translate(-40.8 -23.29)"/><path class="cls-17" d="M124.88,306v12.59c0,3.62-17.44,6.56-39,6.56-13.63,0-25.62-1.18-32.58-3,1.07,3.47,18.07,6.22,38.9,6.22,21.51,0,39-2.94,39-6.56V306Z" transform="translate(-40.8 -23.29)"/><path class="cls-11" d="M131.19,306c0,3.63-17.44,6.57-38.95,6.57S53.29,309.61,53.29,306s17.43-6.56,38.95-6.56S131.19,302.36,131.19,306Z" transform="translate(-40.8 -23.29)"/><path class="cls-12" d="M108.15,304.42c0,1.84-10.59,3.32-23.66,3.32s-23.65-1.48-23.65-3.32,10.59-3.31,23.65-3.31S108.15,302.59,108.15,304.42Z" transform="translate(-40.8 -23.29)"/><path class="cls-13" d="M89.62,304.42c0,1.24-4.78,2.24-10.67,2.24s-10.67-1-10.67-2.24,4.78-2.23,10.67-2.23S89.62,303.19,89.62,304.42Z" transform="translate(-40.8 -23.29)"/><path class="cls-14" d="M90.92,299.42h-2c17.56.16,31.47,2.39,31.47,5.11s-15,5.12-33.44,5.12c-17.25,0-31.44-2-33.25-4.57a1.3,1.3,0,0,0-.2.66c0,3.49,16.77,6.33,37.46,6.33s37.46-2.84,37.46-6.33S111.61,299.42,90.92,299.42Z" transform="translate(-40.8 -23.29)"/><path class="cls-8" d="M134,314c0,3.89-18.71,7-41.78,7s-41.78-3.15-41.78-7v-17H134Z" transform="translate(-40.8 -23.29)"/><path class="cls-9" d="M119.76,297.05V307c0,3.89-18.7,7-41.77,7a197,197,0,0,1-27.53-1.74V314c0,3.89,18.7,7,41.78,7S134,317.92,134,314v-17Z" transform="translate(-40.8 -23.29)"/><path class="cls-10" d="M127.25,297.05v13.5c0,3.88-18.71,7-41.78,7-14.63,0-27.49-1.27-34.95-3.19,1.14,3.72,19.38,6.67,41.72,6.67,23.07,0,41.78-3.15,41.78-7v-17Z" transform="translate(-40.8 -23.29)"/><path class="cls-11" d="M134,297.05c0,3.88-18.71,7-41.78,7s-41.78-3.16-41.78-7,18.7-7,41.78-7S134,293.16,134,297.05Z" transform="translate(-40.8 -23.29)"/><path class="cls-12" d="M109.31,295.38c0,2-11.36,3.55-25.38,3.55s-25.37-1.59-25.37-3.55,11.36-3.56,25.37-3.56S109.31,293.41,109.31,295.38Z" transform="translate(-40.8 -23.29)"/><path class="cls-13" d="M89.43,295.38c0,1.32-5.12,2.39-11.44,2.39s-11.45-1.07-11.45-2.39S71.66,293,78,293,89.43,294.05,89.43,295.38Z" transform="translate(-40.8 -23.29)"/><path class="cls-14" d="M90.83,290H88.64c18.82.17,33.75,2.56,33.75,5.48S106.33,301,86.52,301c-18.5,0-33.72-2.15-35.66-4.9a1.46,1.46,0,0,0-.21.71c0,3.74,18,6.78,40.18,6.78s40.17-3,40.17-6.78S113,290,90.83,290Z" transform="translate(-40.8 -23.29)"/><path class="cls-15" d="M131.19,292.85c0,3.63-17.44,6.57-38.95,6.57s-38.95-2.94-38.95-6.57V277h77.9Z" transform="translate(-40.8 -23.29)"/><path class="cls-16" d="M117.9,277v9.27c0,3.63-17.44,6.57-38.95,6.57a183,183,0,0,1-25.66-1.63v1.62c0,3.63,17.43,6.57,38.95,6.57s39-2.94,39-6.57V277Z" transform="translate(-40.8 -23.29)"/><path class="cls-17" d="M124.88,277v12.59c0,3.62-17.44,6.56-39,6.56-13.63,0-25.62-1.18-32.58-3,1.07,3.46,18.07,6.22,38.9,6.22,21.51,0,39-2.94,39-6.57V277Z" transform="translate(-40.8 -23.29)"/><path class="cls-11" d="M131.19,277c0,3.62-17.44,6.56-38.95,6.56S53.29,280.64,53.29,277s17.43-6.57,38.95-6.57S131.19,273.39,131.19,277Z" transform="translate(-40.8 -23.29)"/><path class="cls-12" d="M108.15,275.46c0,1.83-10.59,3.32-23.66,3.32s-23.65-1.49-23.65-3.32,10.59-3.32,23.65-3.32S108.15,273.63,108.15,275.46Z" transform="translate(-40.8 -23.29)"/><path class="cls-13" d="M89.62,275.46c0,1.24-4.78,2.23-10.67,2.23s-10.67-1-10.67-2.23,4.78-2.23,10.67-2.23S89.62,274.23,89.62,275.46Z" transform="translate(-40.8 -23.29)"/><path class="cls-14" d="M90.92,270.46h-2c17.56.15,31.47,2.38,31.47,5.1s-15,5.13-33.44,5.13c-17.25,0-31.44-2-33.25-4.57a1.23,1.23,0,0,0-.2.65c0,3.5,16.77,6.33,37.46,6.33s37.46-2.83,37.46-6.33S111.61,270.46,90.92,270.46Z" transform="translate(-40.8 -23.29)"/><path class="cls-8" d="M134,286.28c0,3.89-18.71,7-41.78,7s-41.78-3.15-41.78-7v-17H134Z" transform="translate(-40.8 -23.29)"/><path class="cls-9" d="M119.76,269.3v9.95c0,3.88-18.7,7-41.77,7a196.85,196.85,0,0,1-27.53-1.75v1.74c0,3.89,18.7,7,41.78,7s41.78-3.15,41.78-7v-17Z" transform="translate(-40.8 -23.29)"/><path class="cls-10" d="M127.25,269.3v13.5c0,3.89-18.71,7-41.78,7-14.63,0-27.49-1.27-34.95-3.19,1.14,3.72,19.38,6.67,41.72,6.67,23.07,0,41.78-3.15,41.78-7v-17Z" transform="translate(-40.8 -23.29)"/><path class="cls-11" d="M134,269.3c0,3.89-18.71,7-41.78,7s-41.78-3.15-41.78-7,18.7-7,41.78-7S134,265.41,134,269.3Z" transform="translate(-40.8 -23.29)"/><path class="cls-12" d="M109.31,267.63c0,2-11.36,3.55-25.38,3.55s-25.37-1.59-25.37-3.55,11.36-3.56,25.37-3.56S109.31,265.66,109.31,267.63Z" transform="translate(-40.8 -23.29)"/><path class="cls-13" d="M89.43,267.63C89.43,269,84.31,270,78,270S66.54,269,66.54,267.63s5.12-2.4,11.45-2.4S89.43,266.3,89.43,267.63Z" transform="translate(-40.8 -23.29)"/><path class="cls-14" d="M90.83,262.26H88.64c18.82.17,33.75,2.56,33.75,5.48s-16.06,5.49-35.87,5.49c-18.5,0-33.72-2.14-35.66-4.9a1.46,1.46,0,0,0-.21.71c0,3.74,18,6.78,40.18,6.78s40.17-3,40.17-6.78S113,262.26,90.83,262.26Z" transform="translate(-40.8 -23.29)"/><path class="cls-15" d="M131.19,266.89c0,3.63-17.44,6.57-38.95,6.57s-38.95-2.94-38.95-6.57V251.06h77.9Z" transform="translate(-40.8 -23.29)"/><path class="cls-16" d="M117.9,251.06v9.27c0,3.63-17.44,6.57-38.95,6.57a183,183,0,0,1-25.66-1.63v1.62c0,3.63,17.43,6.57,38.95,6.57s39-2.94,39-6.57V251.06Z" transform="translate(-40.8 -23.29)"/><path class="cls-17" d="M124.88,251.06v12.58c0,3.63-17.44,6.57-39,6.57-13.63,0-25.62-1.18-32.58-3,1.07,3.46,18.07,6.22,38.9,6.22,21.51,0,39-2.94,39-6.57V251.06Z" transform="translate(-40.8 -23.29)"/><path class="cls-11" d="M131.19,251.06c0,3.62-17.44,6.56-38.95,6.56s-38.95-2.94-38.95-6.56,17.43-6.57,38.95-6.57S131.19,247.43,131.19,251.06Z" transform="translate(-40.8 -23.29)"/><path class="cls-12" d="M108.15,249.5c0,1.83-10.59,3.32-23.66,3.32s-23.65-1.49-23.65-3.32,10.59-3.32,23.65-3.32S108.15,247.67,108.15,249.5Z" transform="translate(-40.8 -23.29)"/><path class="cls-13" d="M89.62,249.5c0,1.23-4.78,2.23-10.67,2.23s-10.67-1-10.67-2.23,4.78-2.23,10.67-2.23S89.62,248.26,89.62,249.5Z" transform="translate(-40.8 -23.29)"/><path class="cls-14" d="M90.92,244.49l-2,0c17.56.15,31.47,2.38,31.47,5.1s-15,5.12-33.44,5.12c-17.25,0-31.44-2-33.25-4.56a1.23,1.23,0,0,0-.2.65c0,3.49,16.77,6.33,37.46,6.33s37.46-2.84,37.46-6.33S111.61,244.49,90.92,244.49Z" transform="translate(-40.8 -23.29)"/><path class="cls-8" d="M134,260.32c0,3.89-18.71,7-41.78,7s-41.78-3.15-41.78-7v-17H134Z" transform="translate(-40.8 -23.29)"/><path class="cls-9" d="M119.76,243.33v9.95c0,3.89-18.7,7-41.77,7a197,197,0,0,1-27.53-1.74v1.74c0,3.89,18.7,7,41.78,7s41.78-3.15,41.78-7v-17Z" transform="translate(-40.8 -23.29)"/><path class="cls-10" d="M127.25,243.33v13.51c0,3.88-18.71,7-41.78,7-14.63,0-27.49-1.27-34.95-3.19,1.14,3.71,19.38,6.67,41.72,6.67,23.07,0,41.78-3.15,41.78-7v-17Z" transform="translate(-40.8 -23.29)"/><path class="cls-11" d="M134,243.33c0,3.89-18.71,7-41.78,7s-41.78-3.15-41.78-7,18.7-7,41.78-7S134,239.44,134,243.33Z" transform="translate(-40.8 -23.29)"/><path class="cls-12" d="M109.31,241.67c0,2-11.36,3.55-25.38,3.55s-25.37-1.59-25.37-3.55,11.36-3.56,25.37-3.56S109.31,239.7,109.31,241.67Z" transform="translate(-40.8 -23.29)"/><path class="cls-13" d="M89.43,241.67c0,1.32-5.12,2.39-11.44,2.39S66.54,243,66.54,241.67s5.12-2.4,11.45-2.4S89.43,240.34,89.43,241.67Z" transform="translate(-40.8 -23.29)"/><path class="cls-14" d="M90.83,236.3H88.64c18.82.16,33.75,2.55,33.75,5.47s-16.06,5.5-35.87,5.5c-18.5,0-33.72-2.15-35.66-4.9a1.45,1.45,0,0,0-.21.7c0,3.75,18,6.79,40.18,6.79s40.17-3,40.17-6.79S113,236.3,90.83,236.3Z" transform="translate(-40.8 -23.29)"/><path class="cls-8" d="M372.44,343c0,3.88-18.71,7-41.78,7s-41.78-3.15-41.78-7V326h83.56Z" transform="translate(-40.8 -23.29)"/><path class="cls-9" d="M358.19,326V336c0,3.89-18.71,7-41.78,7a195.34,195.34,0,0,1-27.53-1.75V343c0,3.88,18.71,7,41.78,7s41.78-3.15,41.78-7V326Z" transform="translate(-40.8 -23.29)"/><path class="cls-10" d="M365.67,326v13.5c0,3.89-18.71,7-41.78,7-14.62,0-27.49-1.27-34.95-3.18,1.15,3.71,19.39,6.66,41.72,6.66,23.07,0,41.78-3.15,41.78-7V326Z" transform="translate(-40.8 -23.29)"/><path class="cls-11" d="M372.44,326c0,3.89-18.71,7-41.78,7s-41.78-3.15-41.78-7,18.71-7,41.78-7S372.44,322.12,372.44,326Z" transform="translate(-40.8 -23.29)"/><path class="cls-12" d="M347.73,324.34c0,2-11.36,3.56-25.37,3.56S297,326.31,297,324.34s11.36-3.56,25.38-3.56S347.73,322.38,347.73,324.34Z" transform="translate(-40.8 -23.29)"/><path class="cls-13" d="M327.86,324.34c0,1.32-5.13,2.4-11.45,2.4S305,325.66,305,324.34s5.13-2.39,11.45-2.39S327.86,323,327.86,324.34Z" transform="translate(-40.8 -23.29)"/><path class="cls-14" d="M329.25,319h-2.19c18.83.17,33.75,2.56,33.75,5.48S344.76,330,324.94,330c-18.49,0-33.71-2.14-35.65-4.89a1.32,1.32,0,0,0-.21.7c0,3.75,18,6.78,40.17,6.78s40.17-3,40.17-6.78S351.44,319,329.25,319Z" transform="translate(-40.8 -23.29)"/><path class="cls-15" d="M369.61,321.82c0,3.62-17.44,6.56-38.95,6.56s-39-2.94-39-6.56V306h77.9Z" transform="translate(-40.8 -23.29)"/><path class="cls-16" d="M356.32,306v9.28c0,3.63-17.43,6.56-38.95,6.56a181.51,181.51,0,0,1-25.66-1.63v1.63c0,3.62,17.44,6.56,39,6.56s38.95-2.94,38.95-6.56V306Z" transform="translate(-40.8 -23.29)"/><path class="cls-17" d="M363.3,306v12.59c0,3.62-17.44,6.56-38.95,6.56-13.64,0-25.63-1.18-32.59-3,1.07,3.47,18.08,6.22,38.9,6.22,21.51,0,38.95-2.94,38.95-6.56V306Z" transform="translate(-40.8 -23.29)"/><path class="cls-11" d="M369.61,306c0,3.63-17.44,6.57-38.95,6.57s-39-2.94-39-6.57,17.44-6.56,39-6.56S369.61,302.36,369.61,306Z" transform="translate(-40.8 -23.29)"/><path class="cls-12" d="M346.58,304.42c0,1.84-10.6,3.32-23.66,3.32s-23.66-1.48-23.66-3.32,10.59-3.31,23.66-3.31S346.58,302.59,346.58,304.42Z" transform="translate(-40.8 -23.29)"/><path class="cls-13" d="M328.05,304.42c0,1.24-4.78,2.24-10.68,2.24s-10.67-1-10.67-2.24,4.78-2.23,10.67-2.23S328.05,303.19,328.05,304.42Z" transform="translate(-40.8 -23.29)"/><path class="cls-14" d="M329.35,299.42h-2c17.55.16,31.46,2.39,31.46,5.11s-15,5.12-33.44,5.12c-17.24,0-31.44-2-33.24-4.57a1.3,1.3,0,0,0-.2.66c0,3.49,16.77,6.33,37.46,6.33s37.45-2.84,37.45-6.33S350,299.42,329.35,299.42Z" transform="translate(-40.8 -23.29)"/><path class="cls-8" d="M372.44,314c0,3.89-18.71,7-41.78,7s-41.78-3.15-41.78-7v-17h83.56Z" transform="translate(-40.8 -23.29)"/><path class="cls-9" d="M358.19,297.05V307c0,3.89-18.71,7-41.78,7a197,197,0,0,1-27.53-1.74V314c0,3.89,18.71,7,41.78,7s41.78-3.15,41.78-7v-17Z" transform="translate(-40.8 -23.29)"/><path class="cls-10" d="M365.67,297.05v13.5c0,3.88-18.71,7-41.78,7-14.62,0-27.49-1.27-34.95-3.19,1.15,3.72,19.39,6.67,41.72,6.67,23.07,0,41.78-3.15,41.78-7v-17Z" transform="translate(-40.8 -23.29)"/><path class="cls-11" d="M372.44,297.05c0,3.88-18.71,7-41.78,7s-41.78-3.16-41.78-7,18.71-7,41.78-7S372.44,293.16,372.44,297.05Z" transform="translate(-40.8 -23.29)"/><path class="cls-12" d="M347.73,295.38c0,2-11.36,3.55-25.37,3.55S297,297.34,297,295.38s11.36-3.56,25.38-3.56S347.73,293.41,347.73,295.38Z" transform="translate(-40.8 -23.29)"/><path class="cls-13" d="M327.86,295.38c0,1.32-5.13,2.39-11.45,2.39S305,296.7,305,295.38s5.13-2.4,11.45-2.4S327.86,294.05,327.86,295.38Z" transform="translate(-40.8 -23.29)"/><path class="cls-14" d="M329.25,290h-2.19c18.83.17,33.75,2.56,33.75,5.48S344.76,301,324.94,301c-18.49,0-33.71-2.15-35.65-4.9a1.36,1.36,0,0,0-.21.71c0,3.74,18,6.78,40.17,6.78s40.17-3,40.17-6.78S351.44,290,329.25,290Z" transform="translate(-40.8 -23.29)"/><path class="cls-15" d="M369.61,292.85c0,3.63-17.44,6.57-38.95,6.57s-39-2.94-39-6.57V277h77.9Z" transform="translate(-40.8 -23.29)"/><path class="cls-16" d="M356.32,277v9.27c0,3.63-17.43,6.57-38.95,6.57a183,183,0,0,1-25.66-1.63v1.62c0,3.63,17.44,6.57,39,6.57s38.95-2.94,38.95-6.57V277Z" transform="translate(-40.8 -23.29)"/><path class="cls-17" d="M363.3,277v12.59c0,3.62-17.44,6.56-38.95,6.56-13.64,0-25.63-1.18-32.59-3,1.07,3.46,18.08,6.22,38.9,6.22,21.51,0,38.95-2.94,38.95-6.57V277Z" transform="translate(-40.8 -23.29)"/><path class="cls-11" d="M369.61,277c0,3.62-17.44,6.56-38.95,6.56s-39-2.94-39-6.56,17.44-6.57,39-6.57S369.61,273.39,369.61,277Z" transform="translate(-40.8 -23.29)"/><path class="cls-12" d="M346.58,275.46c0,1.83-10.6,3.32-23.66,3.32s-23.66-1.49-23.66-3.32,10.59-3.32,23.66-3.32S346.58,273.63,346.58,275.46Z" transform="translate(-40.8 -23.29)"/><path class="cls-13" d="M328.05,275.46c0,1.24-4.78,2.23-10.68,2.23s-10.67-1-10.67-2.23,4.78-2.23,10.67-2.23S328.05,274.23,328.05,275.46Z" transform="translate(-40.8 -23.29)"/><path class="cls-14" d="M329.35,270.46h-2c17.55.15,31.46,2.38,31.46,5.1s-15,5.13-33.44,5.13c-17.24,0-31.44-2-33.24-4.57a1.23,1.23,0,0,0-.2.65c0,3.5,16.77,6.33,37.46,6.33s37.45-2.83,37.45-6.33S350,270.46,329.35,270.46Z" transform="translate(-40.8 -23.29)"/><path class="cls-8" d="M372.44,286.28c0,3.89-18.71,7-41.78,7s-41.78-3.15-41.78-7v-17h83.56Z" transform="translate(-40.8 -23.29)"/><path class="cls-9" d="M358.19,269.3v9.95c0,3.88-18.71,7-41.78,7a196.85,196.85,0,0,1-27.53-1.75v1.74c0,3.89,18.71,7,41.78,7s41.78-3.15,41.78-7v-17Z" transform="translate(-40.8 -23.29)"/><path class="cls-10" d="M365.67,269.3v13.5c0,3.89-18.71,7-41.78,7-14.62,0-27.49-1.27-34.95-3.19,1.15,3.72,19.39,6.67,41.72,6.67,23.07,0,41.78-3.15,41.78-7v-17Z" transform="translate(-40.8 -23.29)"/><path class="cls-11" d="M372.44,269.3c0,3.89-18.71,7-41.78,7s-41.78-3.15-41.78-7,18.71-7,41.78-7S372.44,265.41,372.44,269.3Z" transform="translate(-40.8 -23.29)"/><path class="cls-12" d="M347.73,267.63c0,2-11.36,3.55-25.37,3.55S297,269.59,297,267.63s11.36-3.56,25.38-3.56S347.73,265.66,347.73,267.63Z" transform="translate(-40.8 -23.29)"/><path class="cls-13" d="M327.86,267.63c0,1.32-5.13,2.39-11.45,2.39S305,269,305,267.63s5.13-2.4,11.45-2.4S327.86,266.3,327.86,267.63Z" transform="translate(-40.8 -23.29)"/><path class="cls-14" d="M329.25,262.26h-2.19c18.83.17,33.75,2.56,33.75,5.48s-16.05,5.49-35.87,5.49c-18.49,0-33.71-2.14-35.65-4.9a1.36,1.36,0,0,0-.21.71c0,3.74,18,6.78,40.17,6.78s40.17-3,40.17-6.78S351.44,262.26,329.25,262.26Z" transform="translate(-40.8 -23.29)"/><path class="cls-15" d="M369.61,266.89c0,3.63-17.44,6.57-38.95,6.57s-39-2.94-39-6.57V251.06h77.9Z" transform="translate(-40.8 -23.29)"/><path class="cls-16" d="M356.32,251.06v9.27c0,3.63-17.43,6.57-38.95,6.57a183,183,0,0,1-25.66-1.63v1.62c0,3.63,17.44,6.57,39,6.57s38.95-2.94,38.95-6.57V251.06Z" transform="translate(-40.8 -23.29)"/><path class="cls-17" d="M363.3,251.06v12.58c0,3.63-17.44,6.57-38.95,6.57-13.64,0-25.63-1.18-32.59-3,1.07,3.46,18.08,6.22,38.9,6.22,21.51,0,38.95-2.94,38.95-6.57V251.06Z" transform="translate(-40.8 -23.29)"/><path class="cls-11" d="M369.61,251.06c0,3.62-17.44,6.56-38.95,6.56s-39-2.94-39-6.56,17.44-6.57,39-6.57S369.61,247.43,369.61,251.06Z" transform="translate(-40.8 -23.29)"/><path class="cls-12" d="M346.58,249.5c0,1.83-10.6,3.32-23.66,3.32s-23.66-1.49-23.66-3.32,10.59-3.32,23.66-3.32S346.58,247.67,346.58,249.5Z" transform="translate(-40.8 -23.29)"/><path class="cls-13" d="M328.05,249.5c0,1.23-4.78,2.23-10.68,2.23s-10.67-1-10.67-2.23,4.78-2.23,10.67-2.23S328.05,248.26,328.05,249.5Z" transform="translate(-40.8 -23.29)"/><path class="cls-14" d="M329.35,244.49l-2,0c17.55.15,31.46,2.38,31.46,5.1s-15,5.12-33.44,5.12c-17.24,0-31.44-2-33.24-4.56a1.23,1.23,0,0,0-.2.65c0,3.49,16.77,6.33,37.46,6.33s37.45-2.84,37.45-6.33S350,244.49,329.35,244.49Z" transform="translate(-40.8 -23.29)"/><path class="cls-8" d="M372.44,260.32c0,3.89-18.71,7-41.78,7s-41.78-3.15-41.78-7v-17h83.56Z" transform="translate(-40.8 -23.29)"/><path class="cls-9" d="M358.19,243.33v9.95c0,3.89-18.71,7-41.78,7a197,197,0,0,1-27.53-1.74v1.74c0,3.89,18.71,7,41.78,7s41.78-3.15,41.78-7v-17Z" transform="translate(-40.8 -23.29)"/><path class="cls-10" d="M365.67,243.33v13.51c0,3.88-18.71,7-41.78,7-14.62,0-27.49-1.27-34.95-3.19,1.15,3.71,19.39,6.67,41.72,6.67,23.07,0,41.78-3.15,41.78-7v-17Z" transform="translate(-40.8 -23.29)"/><path class="cls-11" d="M372.44,243.33c0,3.89-18.71,7-41.78,7s-41.78-3.15-41.78-7,18.71-7,41.78-7S372.44,239.44,372.44,243.33Z" transform="translate(-40.8 -23.29)"/><path class="cls-12" d="M347.73,241.67c0,2-11.36,3.55-25.37,3.55S297,243.63,297,241.67s11.36-3.56,25.38-3.56S347.73,239.7,347.73,241.67Z" transform="translate(-40.8 -23.29)"/><path class="cls-13" d="M327.86,241.67c0,1.32-5.13,2.39-11.45,2.39S305,243,305,241.67s5.13-2.4,11.45-2.4S327.86,240.34,327.86,241.67Z" transform="translate(-40.8 -23.29)"/><path class="cls-14" d="M329.25,236.3h-2.19c18.83.16,33.75,2.55,33.75,5.47s-16.05,5.5-35.87,5.5c-18.49,0-33.71-2.15-35.65-4.9a1.35,1.35,0,0,0-.21.7c0,3.75,18,6.79,40.17,6.79s40.17-3,40.17-6.79S351.44,236.3,329.25,236.3Z" transform="translate(-40.8 -23.29)"/><path class="cls-8" d="M266.85,380.29c0,5.16-24.8,9.34-55.4,9.34s-55.4-4.18-55.4-9.34V357.77h110.8Z" transform="translate(-40.8 -23.29)"/><path class="cls-9" d="M248,357.77V371c0,5.16-24.8,9.34-55.4,9.34a259.68,259.68,0,0,1-36.5-2.32v2.31c0,5.16,24.8,9.34,55.4,9.34s55.4-4.18,55.4-9.34V357.77Z" transform="translate(-40.8 -23.29)"/><path class="cls-10" d="M257.88,357.77v17.9c0,5.16-24.81,9.34-55.41,9.34-19.39,0-36.45-1.68-46.35-4.22,1.52,4.92,25.71,8.84,55.33,8.84,30.6,0,55.4-4.18,55.4-9.34V357.77Z" transform="translate(-40.8 -23.29)"/><path class="cls-11" d="M266.85,357.77c0,5.16-24.8,9.34-55.4,9.34s-55.4-4.18-55.4-9.34,24.8-9.34,55.4-9.34S266.85,352.61,266.85,357.77Z" transform="translate(-40.8 -23.29)"/><path class="cls-12" d="M234.08,355.56c0,2.6-15.06,4.71-33.64,4.71s-33.65-2.11-33.65-4.71,15.06-4.72,33.65-4.72S234.08,353,234.08,355.56Z" transform="translate(-40.8 -23.29)"/><path class="cls-13" d="M207.73,355.56c0,1.75-6.8,3.17-15.18,3.17s-15.18-1.42-15.18-3.17,6.79-3.18,15.18-3.18S207.73,353.8,207.73,355.56Z" transform="translate(-40.8 -23.29)"/><path class="cls-14" d="M209.58,348.44h-2.9c25,.22,44.76,3.39,44.76,7.27S230.14,363,203.87,363c-24.53,0-44.72-2.84-47.29-6.49a1.8,1.8,0,0,0-.28.93c0,5,23.85,9,53.28,9s53.28-4,53.28-9S239,348.44,209.58,348.44Z" transform="translate(-40.8 -23.29)"/><path class="cls-15" d="M263.1,352.21c0,4.81-23.12,8.71-51.65,8.71s-51.66-3.9-51.66-8.71v-21H263.1Z" transform="translate(-40.8 -23.29)"/><path class="cls-16" d="M245.48,331.21v12.3c0,4.81-23.13,8.7-51.65,8.7a243,243,0,0,1-34-2.15v2.15c0,4.81,23.13,8.71,51.66,8.71s51.65-3.9,51.65-8.71v-21Z" transform="translate(-40.8 -23.29)"/><path class="cls-17" d="M254.73,331.21V347.9c0,4.81-23.12,8.71-51.65,8.71-18.09,0-34-1.57-43.22-3.94,1.42,4.59,24,8.25,51.59,8.25,28.53,0,51.65-3.9,51.65-8.71v-21Z" transform="translate(-40.8 -23.29)"/><path class="cls-11" d="M263.1,331.21c0,4.81-23.12,8.71-51.65,8.71s-51.66-3.9-51.66-8.71,23.13-8.71,51.66-8.71S263.1,326.4,263.1,331.21Z" transform="translate(-40.8 -23.29)"/><path class="cls-12" d="M232.55,329.15c0,2.42-14,4.39-31.37,4.39s-31.37-2-31.37-4.39,14-4.4,31.37-4.4S232.55,326.72,232.55,329.15Z" transform="translate(-40.8 -23.29)"/><path class="cls-13" d="M208,329.15c0,1.63-6.34,3-14.15,3s-14.15-1.33-14.15-3,6.33-3,14.15-3S208,327.51,208,329.15Z" transform="translate(-40.8 -23.29)"/><path class="cls-14" d="M209.71,322.51H207c23.28.21,41.73,3.16,41.73,6.78s-19.85,6.78-44.35,6.78c-22.87,0-41.69-2.64-44.09-6.05a1.72,1.72,0,0,0-.26.87c0,4.63,22.24,8.39,49.68,8.39s49.67-3.76,49.67-8.39S237.14,322.51,209.71,322.51Z" transform="translate(-40.8 -23.29)"/><path class="cls-8" d="M266.85,341.88c0,5.16-24.8,9.34-55.4,9.34s-55.4-4.18-55.4-9.34V319.36h110.8Z" transform="translate(-40.8 -23.29)"/><path class="cls-9" d="M248,319.36v13.19c0,5.16-24.8,9.34-55.4,9.34a259.68,259.68,0,0,1-36.5-2.32v2.31c0,5.16,24.8,9.34,55.4,9.34s55.4-4.18,55.4-9.34V319.36Z" transform="translate(-40.8 -23.29)"/><path class="cls-10" d="M257.88,319.36v17.9c0,5.16-24.81,9.34-55.41,9.34-19.39,0-36.45-1.68-46.35-4.23,1.52,4.93,25.71,8.85,55.33,8.85,30.6,0,55.4-4.18,55.4-9.34V319.36Z" transform="translate(-40.8 -23.29)"/><path class="cls-11" d="M266.85,319.36c0,5.15-24.8,9.33-55.4,9.33s-55.4-4.18-55.4-9.33,24.8-9.34,55.4-9.34S266.85,314.2,266.85,319.36Z" transform="translate(-40.8 -23.29)"/><path class="cls-12" d="M234.08,317.14c0,2.61-15.06,4.72-33.64,4.72s-33.65-2.11-33.65-4.72,15.06-4.71,33.65-4.71S234.08,314.54,234.08,317.14Z" transform="translate(-40.8 -23.29)"/><path class="cls-13" d="M207.73,317.14c0,1.76-6.8,3.18-15.18,3.18s-15.18-1.42-15.18-3.18,6.79-3.17,15.18-3.17S207.73,315.39,207.73,317.14Z" transform="translate(-40.8 -23.29)"/><path class="cls-14" d="M209.58,310h-2.9c25,.22,44.76,3.39,44.76,7.27s-21.3,7.28-47.57,7.28c-24.53,0-44.72-2.84-47.29-6.49a1.8,1.8,0,0,0-.28.93c0,5,23.85,9,53.28,9s53.28-4,53.28-9S239,310,209.58,310Z" transform="translate(-40.8 -23.29)"/><path class="cls-15" d="M263.1,313.8c0,4.81-23.12,8.7-51.65,8.7s-51.66-3.89-51.66-8.7v-21H263.1Z" transform="translate(-40.8 -23.29)"/><path class="cls-16" d="M245.48,292.8v12.3c0,4.81-23.13,8.71-51.65,8.71a242.83,242.83,0,0,1-34-2.16v2.15c0,4.81,23.13,8.7,51.66,8.7s51.65-3.89,51.65-8.7v-21Z" transform="translate(-40.8 -23.29)"/><path class="cls-17" d="M254.73,292.8v16.69c0,4.81-23.12,8.71-51.65,8.71-18.09,0-34-1.57-43.22-3.94,1.42,4.59,24,8.24,51.59,8.24,28.53,0,51.65-3.89,51.65-8.7v-21Z" transform="translate(-40.8 -23.29)"/><path class="cls-11" d="M263.1,292.8c0,4.81-23.12,8.7-51.65,8.7s-51.66-3.89-51.66-8.7,23.13-8.71,51.66-8.71S263.1,288,263.1,292.8Z" transform="translate(-40.8 -23.29)"/><path class="cls-12" d="M232.55,290.73c0,2.43-14,4.4-31.37,4.4s-31.37-2-31.37-4.4,14-4.39,31.37-4.39S232.55,288.31,232.55,290.73Z" transform="translate(-40.8 -23.29)"/><path class="cls-13" d="M208,290.73c0,1.64-6.34,3-14.15,3s-14.15-1.33-14.15-3,6.33-3,14.15-3S208,289.1,208,290.73Z" transform="translate(-40.8 -23.29)"/><path class="cls-14" d="M209.71,284.1H207c23.28.21,41.73,3.16,41.73,6.78s-19.85,6.78-44.35,6.78c-22.87,0-41.69-2.64-44.09-6.05a1.72,1.72,0,0,0-.26.87c0,4.63,22.24,8.39,49.68,8.39s49.67-3.76,49.67-8.39S237.14,284.1,209.71,284.1Z" transform="translate(-40.8 -23.29)"/><path class="cls-8" d="M266.85,305.08c0,5.16-24.8,9.34-55.4,9.34s-55.4-4.18-55.4-9.34V282.56h110.8Z" transform="translate(-40.8 -23.29)"/><path class="cls-9" d="M248,282.56v13.19c0,5.16-24.8,9.34-55.4,9.34a259.68,259.68,0,0,1-36.5-2.32v2.31c0,5.16,24.8,9.34,55.4,9.34s55.4-4.18,55.4-9.34V282.56Z" transform="translate(-40.8 -23.29)"/><path class="cls-10" d="M257.88,282.56v17.9c0,5.16-24.81,9.34-55.41,9.34-19.39,0-36.45-1.68-46.35-4.22,1.52,4.92,25.71,8.84,55.33,8.84,30.6,0,55.4-4.18,55.4-9.34V282.56Z" transform="translate(-40.8 -23.29)"/><path class="cls-11" d="M266.85,282.56c0,5.15-24.8,9.33-55.4,9.33s-55.4-4.18-55.4-9.33,24.8-9.34,55.4-9.34S266.85,277.4,266.85,282.56Z" transform="translate(-40.8 -23.29)"/><path class="cls-12" d="M234.08,280.35c0,2.6-15.06,4.71-33.64,4.71s-33.65-2.11-33.65-4.71,15.06-4.72,33.65-4.72S234.08,277.74,234.08,280.35Z" transform="translate(-40.8 -23.29)"/><path class="cls-13" d="M207.73,280.35c0,1.75-6.8,3.17-15.18,3.17s-15.18-1.42-15.18-3.17,6.79-3.18,15.18-3.18S207.73,278.59,207.73,280.35Z" transform="translate(-40.8 -23.29)"/><path class="cls-14" d="M209.58,273.23h-2.9c25,.22,44.76,3.39,44.76,7.27s-21.3,7.28-47.57,7.28c-24.53,0-44.72-2.84-47.29-6.49a1.8,1.8,0,0,0-.28.93c0,5,23.85,9,53.28,9s53.28-4,53.28-9S239,273.23,209.58,273.23Z" transform="translate(-40.8 -23.29)"/><path class="cls-15" d="M263.1,279.37c0,4.81-23.12,8.71-51.65,8.71s-51.66-3.9-51.66-8.71v-21H263.1Z" transform="translate(-40.8 -23.29)"/><path class="cls-16" d="M245.48,258.37v12.3c0,4.81-23.13,8.7-51.65,8.7a243,243,0,0,1-34-2.15v2.15c0,4.81,23.13,8.71,51.66,8.71s51.65-3.9,51.65-8.71v-21Z" transform="translate(-40.8 -23.29)"/><path class="cls-17" d="M254.73,258.37v16.69c0,4.81-23.12,8.71-51.65,8.71-18.09,0-34-1.57-43.22-3.94,1.42,4.59,24,8.25,51.59,8.25,28.53,0,51.65-3.9,51.65-8.71v-21Z" transform="translate(-40.8 -23.29)"/><path class="cls-11" d="M263.1,258.37c0,4.81-23.12,8.7-51.65,8.7s-51.66-3.89-51.66-8.7,23.13-8.7,51.66-8.7S263.1,253.56,263.1,258.37Z" transform="translate(-40.8 -23.29)"/><path class="cls-12" d="M232.55,256.3c0,2.43-14,4.4-31.37,4.4s-31.37-2-31.37-4.4,14-4.39,31.37-4.39S232.55,253.88,232.55,256.3Z" transform="translate(-40.8 -23.29)"/><path class="cls-13" d="M208,256.3c0,1.64-6.34,3-14.15,3s-14.15-1.33-14.15-3,6.33-3,14.15-3S208,254.67,208,256.3Z" transform="translate(-40.8 -23.29)"/><path class="cls-14" d="M209.71,249.67H207c23.28.21,41.73,3.16,41.73,6.78s-19.85,6.78-44.35,6.78c-22.87,0-41.69-2.65-44.09-6.05a1.72,1.72,0,0,0-.26.87c0,4.63,22.24,8.39,49.68,8.39s49.67-3.76,49.67-8.39S237.14,249.67,209.71,249.67Z" transform="translate(-40.8 -23.29)"/><path class="cls-8" d="M266.85,270.65c0,5.16-24.8,9.34-55.4,9.34s-55.4-4.18-55.4-9.34V248.13h110.8Z" transform="translate(-40.8 -23.29)"/><path class="cls-9" d="M248,248.13v13.19c0,5.16-24.8,9.34-55.4,9.34a259.68,259.68,0,0,1-36.5-2.32v2.31c0,5.16,24.8,9.34,55.4,9.34s55.4-4.18,55.4-9.34V248.13Z" transform="translate(-40.8 -23.29)"/><path class="cls-10" d="M257.88,248.13V266c0,5.15-24.81,9.33-55.41,9.33-19.39,0-36.45-1.68-46.35-4.22,1.52,4.92,25.71,8.84,55.33,8.84,30.6,0,55.4-4.18,55.4-9.34V248.13Z" transform="translate(-40.8 -23.29)"/><path class="cls-11" d="M266.85,248.13c0,5.16-24.8,9.34-55.4,9.34s-55.4-4.18-55.4-9.34,24.8-9.34,55.4-9.34S266.85,243,266.85,248.13Z" transform="translate(-40.8 -23.29)"/><path class="cls-12" d="M234.08,245.91c0,2.61-15.06,4.72-33.64,4.72s-33.65-2.11-33.65-4.72,15.06-4.71,33.65-4.71S234.08,243.31,234.08,245.91Z" transform="translate(-40.8 -23.29)"/><path class="cls-13" d="M207.73,245.91c0,1.76-6.8,3.18-15.18,3.18s-15.18-1.42-15.18-3.18,6.79-3.17,15.18-3.17S207.73,244.16,207.73,245.91Z" transform="translate(-40.8 -23.29)"/><path class="cls-14" d="M209.58,238.8h-2.9c25,.23,44.76,3.39,44.76,7.27s-21.3,7.28-47.57,7.28c-24.53,0-44.72-2.85-47.29-6.49a1.79,1.79,0,0,0-.28.92c0,5,23.85,9,53.28,9s53.28-4,53.28-9S239,238.8,209.58,238.8Z" transform="translate(-40.8 -23.29)"/><polygon class="cls-18" points="50.77 203.47 49.08 203.47 49.08 181.23 49.92 181.23 160.97 181.14 160.97 141.05 162.65 141.05 162.65 182.82 161.81 182.82 50.77 182.91 50.77 203.47"/><polygon class="cls-18" points="289.26 203.47 287.57 203.47 287.57 182.91 178.64 182.82 178.64 141.05 180.32 141.05 180.32 181.14 289.26 181.23 289.26 203.47"/><rect class="cls-18" x="169.8" y="141.05" width="1.68" height="62.42"/><path class="cls-18" d="M92.76,227.69a2.06,2.06,0,1,0-2.06,2.06A2.06,2.06,0,0,0,92.76,227.69Z" transform="translate(-40.8 -23.29)"/><path class="cls-18" d="M213.51,227.69a2.06,2.06,0,1,0-2.06,2.06A2.06,2.06,0,0,0,213.51,227.69Z" transform="translate(-40.8 -23.29)"/><path class="cls-18" d="M331.31,227.69a2.06,2.06,0,1,0-2.06,2.06A2.06,2.06,0,0,0,331.31,227.69Z" transform="translate(-40.8 -23.29)"/></svg>